<?xml version="1.0" standalone="no"?>
<svg
  xmlns="http://www.w3.org/2000/svg"
  viewBox="0 0 150.04000000000002 126.551"
  width="150.04000000000002"
  height="126.551"
>
  <rect
    fill="#0466b2"
    width="150.04000000000002"
    height="126.551"
    x="0"
    y="0"
  ></rect>
  <path
    fill="white"
    fill-rule="nonzero"
    d="M9.80 27.84L4.96 27.84Q4.80 27.84 4.76 27.64L4.76 27.64L0.04 0.16Q0 0 0.16 0L0.16 0L4.64 0Q4.80 0 4.84 0.16L4.84 0.16L7.40 18.24L10.04 0.16Q10.08 0 10.28 0L10.28 0L13.88 0Q14.04 0 14.08 0.16L14.08 0.16L16.68 18.24L19.28 0.16Q19.32 0 19.48 0L19.48 0L23.92 0Q24.12 0 24.08 0.16L24.08 0.16L19.32 27.64Q19.28 27.72 19.20 27.78Q19.12 27.84 19.12 27.84L19.12 27.84L14.28 27.84Q14.16 27.84 14.08 27.64L14.08 27.64L12.04 13.28L10 27.64Q9.96 27.84 9.80 27.84L9.80 27.84ZM39.52 27.84L26.60 27.84Q26.44 27.84 26.44 27.64L26.44 27.64L26.48 0.16Q26.48 0 26.64 0L26.64 0L39.48 0Q39.64 0 39.64 0.20L39.64 0.20L39.64 4.68Q39.64 4.84 39.48 4.84L39.48 4.84L31.28 4.84L31.28 11.08L39.48 11.08Q39.64 11.08 39.64 11.24L39.64 11.24L39.68 15.76Q39.68 15.92 39.52 15.92L39.52 15.92L31.28 15.92L31.28 22.92L39.52 22.92Q39.68 22.92 39.68 23.12L39.68 23.12L39.68 27.68Q39.68 27.84 39.52 27.84L39.52 27.84ZM41.48 27.64L41.48 27.64L46.44 0.16Q46.48 0 46.64 0L46.64 0L52.44 0Q52.60 0 52.64 0.16L52.64 0.16L57.40 27.64Q57.44 27.84 57.24 27.84L57.24 27.84L52.80 27.84Q52.64 27.84 52.60 27.64L52.60 27.64L52.16 24.72L46.72 24.72L46.28 27.64Q46.24 27.84 46.08 27.84L46.08 27.84L41.64 27.84Q41.48 27.84 41.48 27.64ZM49.32 9.20L47.52 20.44L51.36 20.44L49.72 9.20L49.48 7.72L49.32 9.20ZM66.52 27.84L62.00 27.84Q61.84 27.84 61.84 27.64L61.84 27.64L61.84 4.84L56.64 4.84Q56.44 4.84 56.44 4.64L56.44 4.64L56.48 0.16Q56.48 0 56.64 0L56.64 0L71.84 0Q72.04 0 72.04 0.16L72.04 0.16L72.04 4.64Q72.04 4.84 71.88 4.84L71.88 4.84L66.64 4.84L66.68 27.64Q66.68 27.84 66.52 27.84L66.52 27.84ZM78.68 27.84L74.16 27.84Q74 27.84 74 27.64L74 27.64L74.04 0.16Q74.04 0 74.24 0L74.24 0L78.68 0Q78.88 0 78.88 0.16L78.88 0.16L78.84 11.04L84.84 11.04L84.84 0.16Q84.84 0 85 0L85 0L89.44 0Q89.64 0 89.64 0.16L89.64 0.16L89.72 27.64Q89.72 27.84 89.52 27.84L89.52 27.84L85.04 27.84Q84.84 27.84 84.84 27.64L84.84 27.64L84.84 15.88L78.84 15.88L78.84 27.64Q78.84 27.84 78.68 27.84L78.68 27.84ZM106.08 27.84L93.16 27.84Q93 27.84 93 27.64L93 27.64L93.04 0.16Q93.04 0 93.20 0L93.20 0L106.04 0Q106.20 0 106.20 0.20L106.20 0.20L106.20 4.68Q106.20 4.84 106.04 4.84L106.04 4.84L97.84 4.84L97.84 11.08L106.04 11.08Q106.20 11.08 106.20 11.24L106.20 11.24L106.24 15.76Q106.24 15.92 106.08 15.92L106.08 15.92L97.84 15.92L97.84 22.92L106.08 22.92Q106.24 22.92 106.24 23.12L106.24 23.12L106.24 27.68Q106.24 27.84 106.08 27.84L106.08 27.84ZM114.48 27.84L109.96 27.84Q109.80 27.84 109.80 27.64L109.80 27.64L109.88 0.16Q109.88 0 110.04 0L110.04 0L118.12 0Q120.28 0 122.10 1.06Q123.92 2.12 125 3.90Q126.08 5.68 126.08 7.92L126.08 7.92Q126.08 9.40 125.64 10.58Q125.20 11.76 124.60 12.58Q124 13.40 123.52 13.80L123.52 13.80Q125.68 16.20 125.68 19.44L125.68 19.44L125.72 27.64Q125.72 27.84 125.52 27.84L125.52 27.84L121 27.84Q120.84 27.84 120.84 27.72L120.84 27.72L120.84 19.44Q120.84 18 119.82 16.94Q118.80 15.88 117.32 15.88L117.32 15.88L114.68 15.88L114.64 27.64Q114.64 27.84 114.48 27.84L114.48 27.84ZM114.68 4.80L114.68 11.08L118.12 11.08Q119.36 11.08 120.32 10.16Q121.28 9.24 121.28 7.92L121.28 7.92Q121.28 6.64 120.34 5.72Q119.40 4.80 118.12 4.80L118.12 4.80L114.68 4.80Z"
    transform="translate(12.000000000000007 12) scale(1)"
  ></path>
  <path
    fill="white"
    fill-rule="nonzero"
    d="M0 27.64L0 27.64L4.96 0.16Q5 0 5.16 0L5.16 0L10.96 0Q11.12 0 11.16 0.16L11.16 0.16L15.92 27.64Q15.96 27.84 15.76 27.84L15.76 27.84L11.32 27.84Q11.16 27.84 11.12 27.64L11.12 27.64L10.68 24.72L5.24 24.72L4.80 27.64Q4.76 27.84 4.60 27.84L4.60 27.84L0.16 27.84Q0 27.84 0 27.64ZM7.84 9.20L6.04 20.44L9.88 20.44L8.24 9.20L8 7.72L7.84 9.20ZM23.12 27.84L18.64 27.84Q18.44 27.84 18.44 27.64L18.44 27.64L18.52 0.16Q18.52 0 18.68 0L18.68 0L26.36 0Q30.04 0 32.18 2.24Q34.32 4.48 34.32 8.32L34.32 8.32Q34.32 11.16 33.20 13.24Q32.08 15.32 30.28 16.44Q28.48 17.56 26.36 17.56L26.36 17.56L23.32 17.56L23.32 27.64Q23.32 27.84 23.12 27.84L23.12 27.84ZM23.32 4.80L23.32 12.72L26.36 12.72Q27.64 12.72 28.58 11.50Q29.52 10.28 29.52 8.32L29.52 8.32Q29.52 6.76 28.68 5.76Q27.84 4.76 26.36 4.76L26.36 4.76L23.32 4.80ZM41.40 27.84L36.92 27.84Q36.72 27.84 36.72 27.64L36.72 27.64L36.80 0.16Q36.80 0 36.96 0L36.96 0L44.64 0Q48.32 0 50.46 2.24Q52.60 4.48 52.60 8.32L52.60 8.32Q52.60 11.16 51.48 13.24Q50.36 15.32 48.56 16.44Q46.76 17.56 44.64 17.56L44.64 17.56L41.60 17.56L41.60 27.64Q41.60 27.84 41.40 27.84L41.40 27.84ZM41.60 4.80L41.60 12.72L44.64 12.72Q45.92 12.72 46.86 11.50Q47.80 10.28 47.80 8.32L47.80 8.32Q47.80 6.76 46.96 5.76Q46.12 4.76 44.64 4.76L44.64 4.76L41.60 4.80Z"
    transform="translate(12.000000000000007 47.84) scale(2.397)"
  ></path>
</svg>
